<svg width="24" height="24" viewBox="0 0 24 24" fill="none" xmlns="http://www.w3.org/2000/svg">
<path d="M19.8211 12.9358C19.8211 12.9358 19.4054 18.3813 13.5285 19.4897C7.65163 20.5982 5.36041 15.6206 5.36041 15.6206C5.36041 15.6206 5.68113 10.1504 11.558 9.04199C17.4348 7.93358 19.8211 12.9358 19.8211 12.9358Z" fill="white" stroke="#2C9537" stroke-width="1.5"/>
<path d="M15.9828 5.37461C15.9828 5.37461 18.3948 10.1425 13.9248 14.1156C9.45489 18.0887 4.92992 14.9984 4.92992 14.9984C4.92992 14.9984 2.39159 10.1421 6.86155 6.16904C11.3315 2.19594 15.9828 5.37461 15.9828 5.37461Z" fill="#80EDAF" stroke="#2C9537" stroke-width="1.5"/>
<path d="M4.68963 20.0691C4.12547 15.556 5.25396 12.8482 10.331 10.0275" stroke="#2C9537" stroke-width="1.5" stroke-linecap="square"/>
</svg>
